<svg xmlns="http://www.w3.org/2000/svg" viewBox="0 0 64 64" aria-labelledby="title"><title>Croissant</title><path d="M38.4 14.7l14.5-4.2a29.8 29.8 0 0 0-17.1-8.3c-4.7-.5-7.3 2.9-6.7 4.3s5.9 3.4 9.3 8.2zM10.7 53.1l4.2-15c-4.5-3.5-7.2-9-8.5-9s-4.5 3.8-4.3 6.6a29.8 29.8 0 0 0 8.5 17.4zM40.4 18.3a11.7 11.7 0 0 1 0 8.1L61.8 34a29.9 29.9 0 0 0-6-20.2zM38.6 30a28.4 28.4 0 0 1-3.9 4.8 28.4 28.4 0 0 1-4.7 3.8l8.2 22.6a30 30 0 0 0 23-23.1zM26.4 40.4a10.9 10.9 0 0 1-7.9-.2L14 56a29.9 29.9 0 0 0 20.1 5.8z"/></svg>
