<svg viewBox="0 0 64 64" xmlns="http://www.w3.org/2000/svg" aria-labelledby="title"><title>Dinner</title><circle r="8" cy="33.99" cx="33"/><path d="M33 14.99a19 19 0 1 0 19 19 19 19 0 0 0-19-19zm0 31a12 12 0 1 1 12-12 12 12 0 0 1-12 12z"/><path d="M16 20.06V13a2 2 0 0 0-4 0v7.06a2.6 2.6 0 0 1-2 2.65V13a2 2 0 0 0-4 0v9.63a3.38 3.38 0 0 1-2-2.2V13a2 2 0 1 0-4 0v7.43c0 2.33 2.12 5.55 6 6.37V51a2 2 0 0 0 4 0V26.8c3.7-.66 6-3.16 6-6.74zm41.63-8.23A2 2 0 0 0 54 13v38a2 2 0 0 0 4 0V37h4a2 2 0 0 0 2-2c0-14.11-6.11-22.8-6.37-23.17z"/></svg>
