<svg xmlns="http://www.w3.org/2000/svg" xmlns:xlink="http://www.w3.org/1999/xlink" x="0px" y="0px"
	 viewBox="0 0 10.7 13.1" enable-background="new 0 0 10.7 13.1" xml:space="preserve">
	<path fill="none" stroke="currentColor" stroke-linecap="round" stroke-linejoin="round" d="M10.2,12.6V0.5H0.5v12.1H10.2z"/>
	<path d="M0.5,3.6v8.5c0,0.3,0.2,0.5,0.5,0.5c0,0,0,0,0,0h8.6c0.3,0,0.5-0.2,0.5-0.5c0,0,0,0,0,0V3.6H0.5z M5.1,6.9L3.6,7.7
		C3.4,7.8,3.2,7.8,3,7.6L2.2,6.1c-0.1-0.2,0-0.5,0.2-0.6l1.5-0.9c0.2-0.1,0.5,0,0.6,0.2l0.9,1.5c0,0,0,0,0,0C5.4,6.5,5.3,6.8,5.1,6.9
		z M8.5,8.9l-0.9,1.5c-0.1,0.2-0.4,0.3-0.6,0.2L5.6,9.7C5.4,9.6,5.3,9.4,5.4,9.2c0,0,0,0,0-0.1l0.9-1.5c0.1-0.2,0.4-0.3,0.6-0.2
		l1.5,0.9C8.6,8.4,8.6,8.7,8.5,8.9z"/>
</svg>
