<svg xmlns="http://www.w3.org/2000/svg" xmlns:xlink="http://www.w3.org/1999/xlink" x="0px" y="0px"
	 viewBox="0 0 11.1 19.9" enable-background="new 0 0 11.1 19.9" xml:space="preserve">
<path fill="none" stroke="currentColor" stroke-linecap="round" stroke-linejoin="round" d="M10.6,19.4V0.5H0.5v18.9H10.6z"/>
<path d="M0.5,3.9v14.8c0,0.4,0.4,0.8,0.8,0.8h8.5c0.4,0,0.8-0.3,0.8-0.8V3.9H0.5z M2.7,6.2l1.4-0.8c0.3-0.2,0.7-0.1,0.8,0.2
	c0,0,0,0,0,0L5.7,7c0.2,0.3,0.1,0.7-0.2,0.8c0,0,0,0,0,0L4.1,8.6C3.8,8.8,3.5,8.7,3.3,8.4c0,0,0,0,0,0L2.5,7
	C2.3,6.7,2.4,6.4,2.7,6.2z M6.2,15.8l-1.4,0.8c-0.3,0.2-0.7,0.1-0.9-0.2L3.2,15c-0.2-0.3-0.1-0.7,0.2-0.9l1.4-0.8
	c0.3-0.2,0.7-0.1,0.9,0.2l0.8,1.4C6.5,15.2,6.4,15.6,6.2,15.8z M8.7,10.8C8.7,10.8,8.7,10.8,8.7,10.8l-0.8,1.4
	c-0.2,0.3-0.5,0.4-0.8,0.2c0,0,0,0,0,0l-1.4-0.8c-0.3-0.2-0.4-0.6-0.2-0.9l0.8-1.4C6.3,9.1,6.7,9,7,9.1c0,0,0,0,0,0l1.4,0.8
	C8.7,10.1,8.8,10.5,8.7,10.8z"/>
</svg>
