<svg xmlns="http://www.w3.org/2000/svg" viewBox="0 0 64 64" aria-labelledby="title"><title>Water Droplet</title><path d="M24 51a10.4 10.4 0 0 0-.5-2.5C21.4 41.4 14 32 14 32s-7.4 9.4-9.5 16.6A10.4 10.4 0 0 0 4 51v.8A10.1 10.1 0 0 0 14 62a10.1 10.1 0 0 0 10-10.2V51zm36 0a10.4 10.4 0 0 0-.5-2.5C57.4 41.4 50 32 50 32s-7.4 9.4-9.5 16.6A10.4 10.4 0 0 0 40 51v.8a10 10 0 1 0 20 0V51zM42 21a10.4 10.4 0 0 0-.5-2.5C39.4 11.4 32 2 32 2s-7.4 9.4-9.5 16.6A10.3 10.3 0 0 0 22 21v.8a10 10 0 1 0 20 0V21z"/></svg>
