<svg xmlns="http://www.w3.org/2000/svg" viewBox="0 0 64 64" aria-labelledby="title"><title>Wheat</title><path d="M51.5 14.3a6 6 0 0 0 4.2-1.8C59.2 9 57.5 3.3 57.4 3l-.2-.5-.5-.2a12.5 12.5 0 0 0-3.7-.6A8.1 8.1 0 0 0 47.2 4a6 6 0 0 0 4.2 10.2zm-14.2 2.8a6 6 0 0 0 6-6c0-4.9-5.3-7.8-5.5-7.9l-.4-.2-.5.2c-.2.1-5.6 2.8-5.6 7.9a6 6 0 0 0 6 6zm11-1a6 6 0 0 0 0 12c5.1 0 7.8-5.3 7.9-5.6l.2-.5-.2-.5c-.1-.1-2.9-5.4-7.9-5.4zM27.2 27.3a6 6 0 0 0 6-6c0-4.9-5.3-7.8-5.5-7.9l-.5-.2-.5.2c-.2.1-5.6 2.8-5.6 7.9a6 6 0 0 0 6.1 6zm11-1a6 6 0 0 0 0 12c5.1 0 7.8-5.3 7.9-5.6l.2-.5-.2-.5c-.2-.1-3-5.4-7.9-5.4zM17.3 37.2a6 6 0 0 0 6-6c0-4.9-5.3-7.8-5.5-7.9l-.5-.2-.5.2c-.2.1-5.6 2.8-5.6 7.9a6 6 0 0 0 6.1 6zm5 5a6 6 0 0 0 6 6c5.1 0 7.8-5.3 7.9-5.6l.2-.5-.2-.5c-.1-.2-3-5.5-7.9-5.5a6 6 0 0 0-6 6.1zm-2.9-2.4a2 2 0 0 0-2.8 0l-9.9 9.9a2 2 0 1 0 2.8 2.8l9.9-9.9a2 2 0 0 0 0-2.8zM13.3 53.5c9.4 9.4 19.4 11.7 26.9 4.2-8.5-8.4-20.4-10.7-26.9-4.2z"/></svg>
