<svg xmlns="http://www.w3.org/2000/svg" viewBox="0 0 325.5 469"><defs><style>.a{fill:#fff;}.b,.i,.l,.p,.t,.w{fill:none;}.b,.l{stroke:#f2f2f2;}.b{stroke-width:6px;}.c,.d{fill:#ffc312;}.c{opacity:0.302;}.e,.f{fill:#c4e538;}.e,.g{opacity:0.3;}.g,.h{fill:#ed4c67;}.i{stroke:#909090;stroke-linecap:round;stroke-linejoin:round;stroke-miterlimit:10;}.j{fill:#777d89;font-size:12px;}.j,.m,.n,.r{font-family:RadnikaNext-Medium, Radnika Next;font-weight:500;}.k,.s{fill:#909090;}.k{font-size:14px;}.k,.o,.s{font-family:RadnikaNext-Light, Radnika Next;font-weight:300;}.l,.p,.t{stroke-width:2px;}.n,.q,.r,.u{fill:#0652dd;}.n{font-size:35px;}.p{stroke:#cedfff;}.r,.s{font-size:18px;}.t{stroke:#0652dd;}.u{opacity:0.142;}.v{stroke:none;}</style></defs><g transform="translate(-1271.451 -158)"><rect class="a" width="325" height="469" transform="translate(1271.451 158)"/><g transform="translate(36.451 -155)"><line class="b" x2="240" transform="translate(1278.5 710.5)"/><circle class="c" cx="19" cy="19" r="19" transform="translate(1379 692)"/><circle class="d" cx="10" cy="10" r="10" transform="translate(1388 701)"/><circle class="e" cx="19" cy="19" r="19" transform="translate(1495 692)"/><circle class="f" cx="10" cy="10" r="10" transform="translate(1504 701)"/><circle class="g" cx="19" cy="19" r="19" transform="translate(1263 692)"/><circle class="h" cx="10" cy="10" r="10" transform="translate(1272 701)"/><path class="i" d="M18.286,13.571h.571a1.143,1.143,0,1,0,0-2.286H12.571a23.143,23.143,0,0,0,.571-5.143,1.143,1.143,0,1,0-2.286,0s-1.143,6.286-5.143,6.286H4v6.857H6.857c1.143,0,3.429,1.143,4.571,1.143h5.714a1.143,1.143,0,0,0,0-2.286h.571a1.143,1.143,0,0,0,0-2.286h.571a1.143,1.143,0,1,0,0-2.286" transform="translate(1503.641 733.993)"/><path class="i" d="M14.286,8.571h.571a1.143,1.143,0,1,0,0-2.286H8.571a23.143,23.143,0,0,0,.571-5.143,1.143,1.143,0,1,0-2.286,0S5.714,7.429,1.714,7.429H0v6.857H2.857c1.143,0,3.429,1.143,4.571,1.143h5.714a1.143,1.143,0,0,0,0-2.286h.571a1.143,1.143,0,0,0,0-2.286h.571a1.143,1.143,0,1,0,0-2.286" transform="translate(1287.641 754.421) rotate(180)"/></g><text class="j" transform="translate(1298.451 380)"><tspan x="0" y="0">When did you eat today?</tspan></text><text class="k" transform="translate(1298.451 419)"><tspan x="0" y="14">It seems that eating after 10pm makes </tspan><tspan x="0" y="32.2">you feel worse the day after.</tspan></text><text class="j" transform="translate(1298.451 514)"><tspan x="0" y="0">How healthy did you eat today?</tspan></text><line class="l" x2="325" transform="translate(1271.951 476.5)"/><text class="k" transform="translate(1298.451 305)"><tspan x="0" y="14">Your recommended intake for </tspan><tspan x="0" y="32.2">today so far is </tspan><tspan class="m" y="32.2">2,341 kcal</tspan><tspan y="32.2">.</tspan></text><text class="n" transform="translate(1298.451 288)"><tspan x="0" y="0">1,786 </tspan><tspan class="o" y="0">kcal</tspan></text><g transform="translate(759.451 -121)"><g class="p" transform="translate(538.74 305.74)"><circle class="v" cx="13.26" cy="13.26" r="13.26"/><circle class="w" cx="13.26" cy="13.26" r="12.26"/></g><g transform="translate(532.84 300.954)"><path class="q" d="M30.91,8.61a3.291,3.291,0,0,0,2.3-.987c1.92-1.92.987-5.046.932-5.21l-.11-.274-.274-.11A6.856,6.856,0,0,0,31.732,1.7a4.442,4.442,0,0,0-3.181,1.261,3.291,3.291,0,0,0,2.3,5.594Zm-7.788,1.536a3.291,3.291,0,0,0,3.291-3.291c0-2.687-2.907-4.278-3.017-4.333l-.219-.11-.274.11c-.11.055-3.071,1.536-3.071,4.333a3.291,3.291,0,0,0,3.291,3.291ZM29.154,9.6a3.291,3.291,0,0,0,0,6.581c2.8,0,4.278-2.907,4.333-3.071l.11-.274-.11-.274C33.432,12.5,31.9,9.6,29.154,9.6ZM17.582,15.74a3.291,3.291,0,0,0,3.291-3.291c0-2.687-2.907-4.278-3.017-4.333l-.274-.11-.274.11c-.11.055-3.071,1.536-3.071,4.333a3.291,3.291,0,0,0,3.346,3.291Zm6.033-.548a3.291,3.291,0,1,0,0,6.581c2.8,0,4.278-2.907,4.333-3.071l.11-.274-.11-.274c-.11-.055-1.645-2.962-4.333-2.962ZM12.152,21.17a3.291,3.291,0,0,0,3.291-3.291c0-2.687-2.907-4.278-3.017-4.333l-.274-.11-.274.11c-.11.055-3.071,1.536-3.071,4.333a3.291,3.291,0,0,0,3.346,3.291Zm2.742,2.742A3.291,3.291,0,0,0,18.185,27.2c2.8,0,4.278-2.907,4.333-3.071l.11-.274-.11-.274c-.055-.11-1.645-3.017-4.333-3.017a3.291,3.291,0,0,0-3.291,3.346ZM13.3,22.6a1.1,1.1,0,0,0-1.536,0l-5.43,5.43a1.1,1.1,0,1,0,1.536,1.536l5.43-5.43a1.1,1.1,0,0,0,0-1.536Z"/><path class="q" d="M13.3,51.807c5.155,5.155,10.64,6.417,14.753,2.3C23.392,49.5,16.865,48.242,13.3,51.807Z" transform="translate(-3.341 -21.697)"/></g><text class="r" transform="translate(595 326)"><tspan x="0" y="0">Nutrition</tspan></text><text class="s" transform="translate(811 326)"><tspan x="-37.143" y="0">76%</tspan></text></g><g transform="translate(759.451 -121)"><line class="l" x2="325" transform="translate(512.5 355.5)"/><line class="t" x2="243.75" transform="translate(512.5 355.5)"/><g transform="translate(107.998 -192.002)"><circle class="u" cx="7" cy="7" r="7" transform="translate(642.002 540.502)"/><circle class="q" cx="3.5" cy="3.5" r="3.5" transform="translate(645.502 544.002)"/></g></g><g transform="translate(420.451 -56)"><line class="l" x2="325" transform="translate(851.5 455.5)"/><g transform="translate(221.998 -92.002)"><circle class="u" cx="7" cy="7" r="7" transform="translate(642.002 540.502)"/><circle class="q" cx="3.5" cy="3.5" r="3.5" transform="translate(645.502 544.002)"/></g><g transform="translate(408.998 -92.002)"><circle class="u" cx="7" cy="7" r="7" transform="translate(642.002 540.502)"/><circle class="q" cx="3.5" cy="3.5" r="3.5" transform="translate(645.502 544.002)"/></g><g transform="translate(506.998 -92.002)"><circle class="u" cx="7" cy="7" r="7" transform="translate(642.002 540.502)"/><circle class="q" cx="3.5" cy="3.5" r="3.5" transform="translate(645.502 544.002)"/></g></g></g></svg>